<svg xmlns="http://www.w3.org/2000/svg" viewBox="0 0 960 960"><path d="M950 179c-10-5-15 5-21 10l-5 5q-22 25-55 25-49-3-86 34-9-45-50-62c-14-6-29-12-39-26q-8-15-12-31-2-11-11-14c-8-1-12 6-15 11q-17 35-17 74 2 86 74 136 8 4 5 12l-11 34q-2 10-13 5a221 221 0 0 1-69-47c-34-33-65-70-104-98l-28-19c-39-38 6-70 16-73 11-4 4-18-31-18-35 1-67 12-108 28l-18 5a384 384 0 0 0-116-4Q124 180 56 271C3 344-9 427 6 514q26 137 134 226 112 93 258 86c59-4 125-12 200-75 19 10 38 13 71 16q39 3 68-5c30-6 28-33 17-38-86-41-67-24-85-37 44-52 110-106 136-281q2-18 0-33-1-10 9-11a167 167 0 0 0 62-19c56-30 78-80 84-140q3-15-10-24M463 720c-83-66-124-87-141-86-15 1-12 18-9 30q5 17 15 30c4 6 8 16-5 24-27 16-73-6-76-7q-82-46-132-132-47-84-51-179c-1-16 3-21 19-24a188 188 0 0 1 61-2q128 20 218 111c35 35 61 76 89 116a554 554 0 0 0 134 144c-32 3-85 4-122-25m40-258a12 12 0 0 1 17-11 12 12 0 0 1 8 11 12 12 0 0 1-13 13 12 12 0 0 1-12-13m125 64q-12 5-24 7a50 50 0 0 1-32-11c-11-9-19-14-22-30l1-23q3-19-10-29-11-9-27-8l-11-4a10 10 0 0 1-4-14l8-8q22-11 45 0 19 9 40 32c16 18 19 23 28 36q11 16 18 34 3 12-10 18" fill="#4d6bfe"/></svg>
