<svg xmlns="http://www.w3.org/2000/svg" style="flex:none;line-height:1" viewBox="0 0 24 24"><circle cx="12" cy="12" r="12" fill="#0055e9"/><path fill="#a8dff5" d="m12 0 1.5.1a6.2 6.2 0 0 1-1.4 12.2H12c-3 0-5.2 2.2-5.6 5q-.4 3.5 2.3 6.2A12 12 0 0 1 12 0"/><path fill="#0055e9" d="M5.3 5A2.4 2.4 0 0 1 6 8.4c-4 6-3.2 10.7 2.6 15.1A12 12 0 0 1 1.1 7l.8-1.3A2.4 2.4 0 0 1 5.3 5"/><path fill="#00bcff" d="m13 0 .8.1 1.5.5c6.7 2.9 8.1 10 1.8 15.6a4 4 0 0 1-5.8-.3c-1.6-1.7-1.3-4.2.3-5.9.9-.8 3.1-1.2 4-2.4C17 6 17.9 1.6 13.2 0z"/><path fill="#ececee" d="M13.5.1A6.2 6.2 0 0 1 12 12.3l-1.7.2q.2-1.3 1.3-2.5c.9-.8 3.1-1.2 4-2.4C17 5.9 17.9 1.5 13 0z"/></svg>