<svg xmlns="http://www.w3.org/2000/svg" viewBox="0 0 100 100"><style>.cls-4{fill:#89878d}.cls-8{stroke-linecap:round;stroke-linejoin:round;fill:none;stroke:#636167;stroke-width:.6441;stroke-miterlimit:10}.cls-16{fill:#838187}.cls-18{fill:#ffedbf}.cls-21{fill:#b8eef4}</style><linearGradient id="SVGID_1_" x1="50" x2="50" y1="2.58" y2="77.11" gradientUnits="userSpaceOnUse"><stop offset="0" stop-color="#bbbcc1"/><stop offset="1" stop-color="#6d6b72"/></linearGradient><path d="M99.4 22.5c0-13-4.8-19.9-19.4-19.9H20.1C5.5 2.6.6 7.5.6 22.5V56C.6 70.7 5.4 77.1 20 77.1h60c14.1 0 19.4-4.1 19.4-21.1z" style="fill:url(#SVGID_1_)"/><path d="M81.1 72.5c-5.6 0-61 1.4-62.1.1C8.1 72.6.9 69.2.7 56.8c0 13 2.6 20.3 18.3 20.3h62c14.1 0 18.4-4.1 18.4-17 0 9.6-5.1 12.4-18.3 12.4" style="fill:#6d6b72"/><linearGradient id="SVGID_2_" x1="50" x2="50" y1="5.65" y2="71.89" gradientUnits="userSpaceOnUse"><stop offset="0" stop-color="#abaab0"/><stop offset="1" stop-color="#807f85"/></linearGradient><path d="M96.5 24c0-13.5-4.6-18.4-15.4-18.4H21.9C10 5.6 3.6 7.6 3.5 23.2v25.6c0 14.8 2.9 23.7 15.5 23.7h62c13.1 0 15.6-6 15.5-20.5z" style="fill:url(#SVGID_2_)"/><path d="M56.7 71.9c-.9-.5-1.8-.5-2.7-.8-1.3-.5-2.5-.4-4-.4s-2.4 0-3.5.4c-.9.3-2 .3-3.2.8-3.7-3.3-8.4-6.9-16.4-7.4-2.1 0-3.9.4-4.8 1.9-1.8 2.5-2.9 8.5-2.9 8.7-1 9.9 1.1 18.8 3.9 21.4 1.1 1 2.8 1.1 4.3 1 6 0 12-3.6 15.6-7.4l.2-.1c.8.6 1.4.6 2.3.7l1.9.5c.7.1 1.5.1 2.6.1 1.3 0 2.4 0 3.5-.4l1.1-.3c.8 0 1.5-.1 2.3-.6l.1.1c3.9 4 9.5 7.4 15.6 7.4 1.4 0 3.2.1 4.3-1 2.1-2 3.7-7.9 3.7-14.5 0-4.9-1.1-11.9-3-16.1-.7-1.2-2.5-1.9-4.5-1.9-7 .4-12 3.6-16.4 7.9" class="cls-4"/><path d="M57.1 73.2 57 73c3.4-3 7.4-6.9 14.9-7.9 1.7-.1 3.9-.2 5 .9 1.7 1.5 3.6 8.4 3.6 13.6-1.1-6-2.6-11.6-4.1-13-1-1-3.3-1-4.9-.7-5.4.5-10.6 3.7-13.6 6.6zm-14.5.2-.1.2c-2.9-2.5-7.3-6.1-14-7-1.4-.1-3.9-.6-5 .9-1.9 2.1-3.5 9-3.9 11.6 0-5 1.8-11.6 3.5-13.1 1-1 3-1 4.5-1 5.5.4 10 2.1 15 7.1l.3.5z" style="fill:#c1c1c7"/><path d="M42.1 74.6c-2.7-2.2-7.6-7-15.1-7.5-1.2 0-2.2 0-2.8.9-1.3 1.5-3.2 6.5-3.2 13.6l8.5 7.5 2.6-.5 9.5-3.6-.2-6.6zm15.8 0c2.7-2.2 7.6-7 14.8-7.5 1.2 0 2.5 0 3.2.9 1.2 1.5 3 6.5 3 13.6l-8.7 7.5-2.3-.6-9.4-3.5-.3-6.6z" style="fill:#c8c6cb"/><path d="M29.5 74.9c-1.6 2.6-2.6 8.1.1 14.2l-8.4-7.5c0-4.6.8-10.6 2.9-13.7l.8-.3zm40.9 0c1.7 3 2.7 8.1-.2 14.2l8.4-7.5c0-4.7-.7-10.6-2.8-13.7l-.8-.3z" style="fill:#a7a5ab"/><path d="m29.5 75 11.9 3.4.1 6.2-11.9 4.5c-1.5-3.2-2.7-9.6-.1-14.1m40.9 0-11.8 3.4c-.2 2 0 3.7-.1 6.2l11.7 4.5c1.7-3.1 2.8-9 .2-14.1" class="cls-4"/><path d="m29.6 89.1-4.5 6.1c1 .7 8 1.5 17-6.3v-.2l-.6-3.5c-3.1 1.2-9.1 3.4-11.9 3.9m40.6-.1 4.7 6.4c-1.8.5-7.9.6-17-6.5l.1-.3.6-3.5c2 .8 9.4 3.5 11.6 3.9" class="cls-16"/><path d="M49.5 71.6c-2.9 0-2.6.5-4.9.8-1.2.1-1.7 1-2.1 2.8-.9 3.9-.9 10.3 1.4 11.4 1.7.8 5.6 1.5 9.2.9l2.3-.6c2-.5 2.5-2.8 2.5-5.9 0-2.6-.3-5.9-1.3-6.6-1-1-2.7-.5-3.2-1l-.7-1.9z" style="fill:#a6a4a9"/><path d="M45.5 73.6c1.6-.5 2.1-.6 4.5-.6.6 0 1.9 0 2.1.1.4.4.8 5.9.4 7.9-.5 1.6-1.9 2.4-4.1 2.6-2 .3-2.3 2.8-1.9 3.8.4-.4 0-1.8 2.5-1.8 2.4 0 4.6-1.5 4.9-5.2.1-3.5-.4-7.9-.9-8.8l-.5-.1c-1.1-.1-3.5-.1-4.4 0-1.6.1-2.2.6-3.6 1.6-1.3.5-1.9 1.5-1.9 3.9.4-2.4.8-3.4 2.9-3.4" style="fill:#c1bec2"/><path d="M53.4 73.6c3.3 0 3.6.9 4.2 4.3.8 3.5.3 10.7-1 12.1-.7.6-1.2.5-2 .6l-1.1.3c-1.5.5-4.4.5-6 .2-.5-.6-.6-3.2-.6-4.1 1 .6 5.5.9 8.5-.1 2.2-.4 2.5-3.3 2.5-6 0-2.3-.4-5.9-1.3-6.5-.5-.8-2.1-.8-3.2-.8" class="cls-4"/><path d="M42.5 82.1c.1 3.3.4 6.4.9 7.8.7.7 1.6.6 2.2.7l1.5.4c-.5-1.4-.7-4.1-.5-5-.7 1.1-3.7 1.6-4.1-3.9" class="cls-16"/><path d="M42.1 74.6c-2.7-2.2-7.6-6.6-14.1-7.5-1.1-.1-3-.2-3.6.5-1.3 1-3.4 6-3.4 13.9 0 8 2.1 13 3.9 14 1.5.6 8.1 1.1 17.2-6.5l.3-.3" style="fill:none;stroke:#636167;stroke-width:.6078;stroke-linecap:round;stroke-linejoin:round;stroke-miterlimit:10"/><path d="M57.9 74.6c2.7-2.1 7.7-6.7 14.1-7.5 1.5-.1 3.2-.2 3.9.8C77.1 69 79 73.6 79 81.5c0 7-1.9 13.1-4 14-1.5.5-8 1.1-17.1-6.5l-.3-.3" class="cls-8"/><path d="M41.5 78.4c-2.1-.9-7.9-2.8-12-3.4" style="fill:none;stroke:#636167;stroke-width:.5829;stroke-linecap:round;stroke-linejoin:round;stroke-miterlimit:10"/><path d="M58.6 78.4c2.5-1 7.5-2.5 11.8-3.4" style="fill:none;stroke:#636167;stroke-width:.5706;stroke-linecap:round;stroke-linejoin:round;stroke-miterlimit:10"/><path d="M42 84.9c-2.4 1-8.4 3.1-12.4 4.2" style="fill:none;stroke:#636167;stroke-width:1.1658;stroke-miterlimit:10"/><path d="M58.5 84.9c1.9.7 7.6 3 11.7 4.1m-26.8 1c-1.3-1.1-1.9-6.9-1.8-10 .3-4.5.8-7.4 2-7.9.9-.5 1.8-.1 3-.6 1-.4 2-.4 3.4-.4s2.6 0 3.4.3c1 .5 2.1.2 2.7.7 1.5.8 2 4.5 2.1 8.4 0 2.9-.2 8.4-1.3 9.5" style="fill:none;stroke:#636167;stroke-width:.6441;stroke-miterlimit:10"/><path d="M47.1 91c-.5-.9-.5-3.5-.5-4.1.3-3 2.8-1.9 4.5-2.9 1.5-.6 2.4-2.1 2.5-4 .1-2.9-.2-6.1-.7-8.4" class="cls-8"/><radialGradient id="SVGID_3_" cx="25.29" cy="28.51" r="19.37" gradientUnits="userSpaceOnUse"><stop offset=".47" stop-color="#ffe8b8"/><stop offset=".91" stop-color="#ffe8b8" stop-opacity=".15"/><stop offset="1" stop-color="#ffe8b8" stop-opacity="0"/></radialGradient><circle cx="25.3" cy="28.5" r="19.4" style="fill:url(#SVGID_3_)"/><path d="M39.6 26.7c-.1-1.1-.5-2.2-.7-3.1l.5-.6c.3-.5 0-1-.8-2.3-.5-.7-.7-.7-1.6-.5-.6-.7-1.6-1.7-2.8-2.6l.3-1c0-.6-.5-.7-1.9-1.7-.6-.3-1.1-.3-1.6.5-.9-.4-2.1-.7-3.9-.9l-.2-1c-.3-.5-.9-.4-2.4-.4-.9 0-1 .3-1.1 1.3l-3.4 1-.9-.7c-.6-.3-1 0-2.5.9-.6.4-.6.9-.2 1.9-.8.6-1.8 1.5-2.6 2.5l-.9-.1c-.7 0-.8.5-1.7 2-.3.7-.2 1.1.5 1.6-.3 1-.7 2.1-.8 3.1l-.9.3c-.5.2-.5.7-.5 2.2 0 .8.4.9 1.4 1 .1 1 .5 2.4.8 3.5l-.6.6c-.2.7 0 .9.9 2.4.4.8.9.9 1.6.5l2.6 2.5-.2 1c0 .6.5.9 2 1.8.6.2.9.5 1.5-.3l.2-.1h.3c.9.5 2.1.6 3.4.9l.2 1c.3.5.8.3 2.4.3.9 0 .9-.3 1.1-1.2l3.5-.9.8.8c.6.2 1-.2 2.5-1 .6-.4.6-.8.2-1.8.8-.6 1.8-1.5 2.5-2.6l.9.1c.6 0 .7-.2 1.6-1.7.4-.7.3-1.2-.5-1.9.4-.9.8-2.1.9-3.9l.9-.2c.5-.3.3-.9.3-2.3-.1-.7-.2-.7-1.1-.9" style="fill:#ffda8a"/><path d="M25.2 17 13.5 30.5c.6 4.4 4.5 9 11.4 10.1L28.4 30l-1.8-1-3.1.9L18 38l2.6 1.5 6-9.5 3.3-1.5 3.2-8.5c-1.7-1.6-4.7-3-7.9-3" class="cls-18"/><path d="m28.9 28.6 1.7.9 4.9-6.5c-.4-.5-1.4-2.6-2.3-3z" class="cls-18"/><path d="M39.5 27.1q-.15-1.5-.9-3.6l.5-.5c.5-.5.3-1-.6-2.4-.4-.6-.6-.9-1.6-.5-.8-.7-1.4-1.6-2.8-2.6l.3-.9c0-.6-.5-.9-1.9-1.7-.6-.3-1-.4-1.8.6-.8-.5-2.1-.8-3.6-1l-.2-.9c-.3-.6-.8-.5-2.4-.5-.9 0-1 .3-1.1 1.1l-.3.3c-1 .1-2.4.5-3.3.9l-.7-.7c-.5-.3-1-.1-2.6.9-.6.4-.5.9-.1 1.9-.8.6-1.8 1.5-2.5 2.6l-.9-.2c-.6-.2-.9.3-1.8 2-.3.6-.2 1 .7 1.6-.4 1.1-.8 3.1-.8 3.1l-1 .3c-.5.2-.5.6-.5 2.2 0 .8.3.9 1.4 1 .1 1 .4 2.3.9 3.8l-.7.6c-.2.5 0 1 .8 2.4.4.7.7 1 1.6.5l.3.1c.6.9 1.6 1.7 2.5 2.4l-.3 1.2c0 .6.5.9 2 1.6.8.4.9.3 1.5-.3l.1-.2c.9.4 2.2.8 3.7.9l.2.9c.3.6.8.4 2.4.4.9 0 .9-.3 1.1-1.2l.1-.2c1-.1 2.7-.5 3.4-.9l.8.8c.6.2 1-.2 2.5-.9.6-.4.7-.9.2-1.9.8-.6 1.8-1.5 2.5-2.5l.8-.1c.7.4 1 .1 1.7-1.4.5-.7.5-1.4-.5-2.1.4-1 .8-2.4.9-3.9l.9-.2c.6-.3.5-.9.5-2 0-1-.4-1-1.4-1.3z" style="fill:none;stroke:#d4a057;stroke-width:.682;stroke-linecap:round;stroke-linejoin:round;stroke-miterlimit:10"/><circle cx="25.2" cy="28.5" r="11.8" style="fill:none;stroke:#d4a057;stroke-width:.7779;stroke-miterlimit:10"/><radialGradient id="SVGID_4_" cx="75" cy="28.51" r="18.23" gradientUnits="userSpaceOnUse"><stop offset=".47" stop-color="#b8e8ff"/><stop offset=".91" stop-color="#b8e8ff" stop-opacity=".15"/><stop offset="1" stop-color="#b8e8ff" stop-opacity="0"/></radialGradient><circle cx="75" cy="28.5" r="18.2" style="fill:url(#SVGID_4_)"/><path d="m89.3 26.9-.3-.2-.5-.1c-.1-1-.4-2.1-.8-3.1l.7-.6c.2-.5.1-.9-.8-2.3-.4-.6-.7-.9-1.4-.6l-.1.1V20H86l-.1.1c-.5-.7-1.5-1.7-2.4-2.5l.4-1.1c-.3-.6-.8-.9-1.9-1.5-.8-.4-1.1-.4-1.9.5-.7-.4-2-.8-3.2-1l-.4-1.1c-.3-.5-.8-.4-2.3-.4-.7 0-1.1.4-1.2 1.4l-3.4 1-.6-.7c-.6-.3-1-.1-2.6.9-.7.4-.8.9-.5 1.8l.1.1c-.8.6-1.8 1.5-2.6 2.5l-1-.3c-.7 0-.8.4-1.7 1.9-.3.8-.3 1.1.5 1.9-.3 1-.7 2.1-.7 3.1l-1 .3c-.5.2-.5.7-.5 2.2 0 .9.4 1 1.4 1.1.1 1.2.5 2.4.8 3.4l-.6.8c-.2.6 0 1.1.9 2.5.4.7.7 1 1.6.5l.3.1c.6.9 1.6 1.7 2.3 2.4l-.2 1.2c0 .6.6.9 2.1 1.8.6.2.9.3 1.5-.4l.3-.3c1 .4 2.1.7 3.5.9l.3.9c.3.6.9.4 2.4.4.9 0 1-.3 1.1-1.2l.2-.2c.8 0 2.5-.5 3.2-.9l.8.8c.7.2 1-.2 2.5-.9.7-.4.7-.9.3-1.9.8-.6 1.8-1.5 2.5-2.5h.9c.6 0 .8-.5 1.6-2 .4-.6.3-1.1-.5-1.7.4-.9.8-2.3.9-3.5l.9-.3c.5-.2.4-1 .4-2s-.4-1-1.1-1.2" style="fill:#89d2dc"/><path d="M74.5 17 63.1 30.5c.5 3.4 3.4 6.6 6.8 8.9L76.4 29l-3.5 1-5.3 7.9 2.3 1.5 4.5 1.1 3.5-10.4-1.5-1.1 5-9.9c-1.8-1.5-3.9-2.1-6.9-2.1" class="cls-21"/><path d="m78.2 28.5 1.9 1 4.9-7-2.5-2.5z" class="cls-21"/><path d="m89.1 26.9-.1-.2v.2-.2.2-.2.2-.2l-.5-.1c-.1-1-.4-2.1-.8-3.1l.7-.6c.2-.5.1-.9-.8-2.3-.4-.6-.7-.9-1.4-.6l-.1.1V20v.1H86l.1-.1v.1-.1l-.1.1V20c-.6-.6-1.5-1.6-2.5-2.4l.4-1c0-.6-.5-1-1.9-1.6-.8-.4-1.1-.4-1.8.5-.8-.4-2.1-.8-3.5-1l-.2-.9c-.3-.6-.8-.5-2.4-.5-.9 0-1 .3-1.1 1.1l-.1.3c-1 .1-2.3.5-3.5 1l-.7-.8c-.5-.3-1-.1-2.6.9-.6.4-.6.9-.1 1.9-.8.6-1.8 1.5-2.6 2.6l-1-.4c-.7 0-.8.4-1.7 1.9-.3.8-.2 1.1.7 1.9-.4 1-.8 2.1-.9 3.1l-.9.3c-.5.2-.6.7-.5 2.2 0 .9.4.9 1.3 1.1.1 1.2.5 2.4.8 3.5l-.6.7c-.2.6 0 1.1.9 2.5.4.7.7 1 1.6.5l.3.1c.6.9 1.6 1.7 2.5 2.4l-.3 1.1c0 .6.5 1 2 1.7.8.4 1 .4 1.6-.3l.2-.3c1 .4 2.2.8 3.5 1l.2.9c.3.6.8.5 2.5.4.9 0 1-.3 1.1-1.2v-.1l.2-.1c.8 0 2.6-.5 3.3-.8l.5.7c.7.3.9.1 2.4-.8.8-.4.9-.6.4-2 .9-.6 1.9-1.6 2.7-2.6l.9.2c.6-.1.8-.6 1.6-2.1.4-.6.2-1.1-.6-1.7.4-.9.8-2.3.9-3.5l.9-.3c.5-.4.5-.7.5-2 0-1-.4-1.1-1.3-1.2" style="fill:none;stroke:#549eaf;stroke-width:.6441;stroke-linecap:round;stroke-linejoin:round;stroke-miterlimit:10"/><circle cx="74.9" cy="28.6" r="11.8" style="fill:none;stroke:#549eaf;stroke-width:.7779;stroke-miterlimit:10"/></svg>
