<svg viewBox="0 0 512 512" xmlns="http://www.w3.org/2000/svg" fill-rule="evenodd" clip-rule="evenodd" stroke-linejoin="round" stroke-miterlimit="2">
<defs>
<style>
@media (prefers-color-scheme: light) {
  .a {
    fill: #000;
  }
}
.a {
  fill: #fff;
}
</style>
</defs>
  <path d="M415.017 126.083c3.709-4.758 6.963-9.104 10.4-13.312 1.593-1.98 1.455-3.482-.09-5.553-14.905-19.594-16.317-41.347-7.738-63.42 6.44-16.612 20.686-24.395 38.093-26.054 10.854-1.025 21.504.09 31.38 5.368 12.97 6.941 20.525 17.524 22.983 32.131 1.956 11.653 1.592 23.03-1.707 34.316-5.848 19.98-20.208 30.334-39.89 32.951-16.34 2.183-32.904 2.458-49.38 3.573-1.274.09-2.572 0-4.05 0" fill="#027aff"/>
  <path d="M374.604 36.607h-98.44l-77.939 177.722H88.041V37.38H.001v457.89h88.064v-192.9H243.35c26.737 0 51.153-15.587 62.418-39.822V495.27h88.064v-192.9c0-45.898-35.863-84.492-81.646-87.837v-.228h-48.357a89.62 89.62 0 0 0 52.862-48.241z" class="a" />
</svg>
