<svg xmlns="http://www.w3.org/2000/svg" viewBox="0 0 960 960"><path d="M480 0C321 0 190 10 100 101 9 191 0 321 0 480c0 160 9 290 100 380 90 91 221 100 380 100s290-9 380-100c91-90 100-220 100-380 0-159-9-289-100-380C769 10 639 0 480 0M196 296h225c59 0 120 3 151 33 30 30 33 90 33 147v182a6 6 0 0 1-6 6h-78a6 6 0 0 1-6-6V473c0-32-2-65-19-82-14-14-41-17-68-18H286a6 6 0 0 0-6 6v279a6 6 0 0 1-6 6h-78a6 6 0 0 1-6-6V302a6 6 0 0 1 6-6m485 0h78a6 6 0 0 1 6 6v356a6 6 0 0 1-6 6h-78a6 6 0 0 1-6-6V302a6 6 0 0 1 6-6M357 438h82q5 1 6 6v214a6 6 0 0 1-6 6h-82a6 6 0 0 1-6-6V444a6 6 0 0 1 6-6" fill="#ff6900"/></svg>
