<svg xmlns="http://www.w3.org/2000/svg" viewBox="0 0 250 250" width="250" height="250">
  <defs>
    <linearGradient id="a" gradientUnits="userSpaceOnUse"/>
    <linearGradient id="b" x2="1" href="#a" gradientTransform="matrix(229.168 0 0 229.169 10.412 10.415)">
      <stop stop-color="#6336e7"/>
      <stop offset="1" stop-color="#6f69f7"/>
    </linearGradient>
  </defs>
  <path d="M 94.761 13.648 L 62.647 67.408 L 29.291 68.65 L 60.013 162.865 L 40.889 197.927 L 49.54 209.538 L 108.736 210.677 L 124.673 236.404 L 196.846 167.191 L 235.322 155.352 L 206.408 98.661 L 221.89 73.389 Z" fill="white"/>
  <path d="M131.3 14q6.1 10.7 12.2 21.6.1.2.3.4.2.1.4.3.2.1.5.2H203q2.7 0 4.6 3.4l15.2 26.8c2 3.5 2.5 5 .2 8.7q-4 6.7-7.9 13.6l-3.8 6.8c-1.1 2.1-2.3 2.9-.4 5.3l27.6 48.3c1.8 3.2 1.2 5.2-.4 8.1q-6.9 12.2-14 24.3c-1.6 2.9-3.6 4-7 3.9q-12.2-.2-24.3.2h-.2q-.2 0-.3.1l-.2.2q-.1.1-.1.2l-7 12.4q-3.5 6.1-7.1 12.3-3.5 6.2-7 12.3-3.5 6.2-7.1 12.4c-1.8 3-4 3.7-7.5 3.8h-31.5q-.7 0-1.4-.2t-1.4-.6q-.6-.4-1.1-.9-.6-.5-.9-1.1l-13.9-24.2q-.1-.2-.2-.3t-.2-.1q-.1-.1-.2-.1-.2-.1-.3-.1H51.9q-4.5.5-8.4-.9l-16.7-28.9q-.4-.6-.6-1.3-.1-.7-.1-1.5 0-.7.1-1.4.2-.8.6-1.4l12.6-22.1q.1-.2.2-.5v-1q-.1-.3-.2-.5-2.5-4.3-4.9-8.5-2.5-4.3-4.9-8.6-2.5-4.2-4.9-8.5-2.4-4.2-4.9-8.5l-8.2-14.5c-1.7-3.3-1.8-5.2 1-10.1Q19.9 81.1 27 68.4c1.4-2.4 3.2-3.5 6.1-3.5h27.3q.2-.1.3-.2.2 0 .3-.2l.2-.2 29.2-51q.4-.6.8-1.1.5-.5 1.1-.8t1.2-.5q.7-.2 1.3-.2h16.5l10.6-.3c3.6 0 7.6.3 9.4 3.6m-35.8 4.2h-.3q0 .1-.1.1-.1.1-.1.2L65.1 70.7q-.1.2-.2.3l-.3.3-.4.2H33.9q-.9 0-.4.8L94 178.1q.4.6-.4.6l-29.1.2q-.3 0-.6.1-.3 0-.6.2t-.5.4-.4.5l-13.7 24.1q-.7 1.2.7 1.2l59.5.1q.7 0 1.1.6l14.6 25.6q.7 1.3 1.5 0l52.1-91.3 8.2-14.4.2-.2q.1-.1.3-.1.1 0 .3.1l.2.2 14.8 26.4q.1.1.2.3.1.1.3.2.1 0 .3.1h.3l28.8-.2h.2l.1-.1.1-.1v-.4l-30.2-53q-.1-.1-.2-.3v-.6q.1-.1.2-.3l3-5.2L217 72.2q.4-.7-.4-.7H95.8q-.9 0-.4-.8l14.9-26.1q.1-.1.2-.3v-.6q-.1-.1-.2-.3L96.1 18.5q0-.1-.1-.2-.1 0-.1-.1zm65.6 83.5q.7 0 .3.6l-8.7 15.3-27.2 47.7q0 .1-.1.2l-.1.1h-.6l-.1-.1q-.1-.1-.1-.2l-36-62.8q-.3-.5.3-.6l2.3-.1z" style="fill:url(#b)"/>
</svg>
